<svg width="29" height="24" viewBox="0 0 29 24" fill="none" xmlns="http://www.w3.org/2000/svg">
<path d="M3.65002 23.25C2.9041 23.25 2.18873 22.9537 1.66129 22.4262C1.13384 21.8988 0.837524 21.1834 0.837524 20.4375V3.5625C0.837524 2.81658 1.13384 2.10121 1.66129 1.57376C2.18873 1.04632 2.9041 0.750001 3.65002 0.750001H10.2125C10.3503 0.749778 10.4863 0.779903 10.6111 0.838235C10.7359 0.896567 10.8463 0.981674 10.9344 1.0875L13.775 4.5H25.2125C25.4612 4.5 25.6996 4.59877 25.8754 4.77459C26.0513 4.95041 26.15 5.18886 26.15 5.4375C26.15 5.68614 26.0513 5.9246 25.8754 6.10041C25.6996 6.27623 25.4612 6.375 25.2125 6.375H13.3344C13.1983 6.37386 13.064 6.34307 12.9409 6.28479C12.8179 6.22651 12.709 6.14212 12.6219 6.0375L9.7719 2.625H3.65002C3.40138 2.625 3.16293 2.72377 2.98711 2.89959C2.8113 3.0754 2.71252 3.31386 2.71252 3.5625V20.4375C2.71252 20.6861 2.8113 20.9246 2.98711 21.1004C3.16293 21.2762 3.40138 21.375 3.65002 21.375C3.89866 21.375 4.13712 21.4738 4.31294 21.6496C4.48875 21.8254 4.58752 22.0639 4.58752 22.3125C4.58752 22.5611 4.48875 22.7996 4.31294 22.9754C4.13712 23.1512 3.89866 23.25 3.65002 23.25Z" fill="#1599DE"/>
<path d="M23.6938 23.25H3.65004C3.50846 23.2532 3.36801 23.2242 3.23922 23.1653C3.11043 23.1064 2.99666 23.0191 2.90644 22.91C2.81622 22.8008 2.75191 22.6726 2.71833 22.535C2.68475 22.3975 2.68277 22.2541 2.71254 22.1156L5.52504 8.99062C5.57078 8.7774 5.68942 8.5868 5.86053 8.45162C6.03165 8.31644 6.24453 8.24514 6.46254 8.24999H28.025C28.1666 8.24682 28.3071 8.27577 28.4359 8.33467C28.5647 8.39356 28.6784 8.48086 28.7687 8.59003C28.8589 8.69919 28.9232 8.82737 28.9568 8.96494C28.9903 9.10252 28.9923 9.24592 28.9625 9.38437L26.45 21.0281C26.3147 21.6582 25.9671 22.2227 25.4654 22.6271C24.9636 23.0316 24.3382 23.2515 23.6938 23.25V23.25ZM4.81254 21.375H23.6938C23.9118 21.3798 24.1247 21.3085 24.2958 21.1734C24.4669 21.0382 24.5856 20.8476 24.6313 20.6344L26.8625 10.125H7.17505L4.81254 21.375Z" fill="#878787"/>
</svg>
