<svg width="14" height="12" viewBox="0 0 14 12" fill="none" xmlns="http://www.w3.org/2000/svg">
<path d="M0.875 1.1874C0.875 1.41946 0.967187 1.64202 1.13128 1.80612C1.29538 1.97021 1.51794 2.0624 1.75 2.0624H6.5625C7.75687 2.0624 8.3125 2.61802 8.3125 3.8124V9.0974L7.875 8.2224L6.75062 7.09802C6.58644 6.93384 6.36376 6.8416 6.13156 6.8416C5.89937 6.8416 5.67669 6.93384 5.5125 7.09802C5.34831 7.26221 5.25608 7.48489 5.25608 7.71708C5.25608 7.94928 5.34831 8.17196 5.5125 8.33615L8.575 11.3986C8.65626 11.48 8.75277 11.5445 8.85899 11.5886C8.96521 11.6326 9.07907 11.6553 9.19406 11.6553C9.30905 11.6553 9.42291 11.6326 9.52913 11.5886C9.63536 11.5445 9.73186 11.48 9.81312 11.3986L12.8756 8.33615C12.9569 8.25485 13.0214 8.15834 13.0654 8.05212C13.1094 7.9459 13.132 7.83206 13.132 7.71708C13.132 7.60211 13.1094 7.48827 13.0654 7.38205C13.0214 7.27583 12.9569 7.17932 12.8756 7.09802C12.7943 7.01673 12.6978 6.95224 12.5916 6.90824C12.4854 6.86424 12.3715 6.8416 12.2566 6.8416C12.1416 6.8416 12.0277 6.86424 11.9215 6.90824C11.8153 6.95224 11.7188 7.01673 11.6375 7.09802L10.5 8.27927L10.0625 9.12802V3.8124C10.0625 1.65552 8.71937 0.312398 6.5625 0.312398H1.75C1.51794 0.312398 1.29538 0.404585 1.13128 0.56868C0.967187 0.732774 0.875 0.955334 0.875 1.1874Z" fill="white"/>
</svg>
