<svg width="30" height="30" viewBox="0 0 30 30" fill="none" xmlns="http://www.w3.org/2000/svg">
<path d="M11.0039 15.3163C10.5234 15.5272 9.70309 15.8788 9.05856 16.1483C8.22653 16.4882 7.64059 17.2147 7.47653 18.0937L7.1484 19.828C7.08981 20.1444 7.30075 20.4374 7.60543 20.496C7.64059 20.5077 7.67575 20.5077 7.7109 20.5077C7.98043 20.5077 8.22653 20.3202 8.2734 20.039L8.60153 18.3046C8.69528 17.8124 9.0234 17.4022 9.49215 17.2147C10.1484 16.9452 10.9804 16.5937 11.4609 16.3827C11.7539 16.2538 11.8828 15.914 11.7656 15.621C11.6367 15.3163 11.2968 15.1874 11.0039 15.3163Z" fill="#1599DE"/>
<path d="M18.0937 16.1366C17.3789 15.8436 16.4648 15.4452 16.0078 15.2577C15.7148 15.1288 15.375 15.2694 15.2461 15.5624C15.1171 15.8554 15.2578 16.1952 15.5507 16.3241C16.0078 16.5233 16.9336 16.9218 17.6484 17.2147C18.1171 17.4022 18.4453 17.8124 18.539 18.3163L18.8671 20.0389C18.914 20.3202 19.1601 20.5077 19.4296 20.5077C19.4648 20.5077 19.5 20.5077 19.5351 20.496C19.8515 20.4374 20.0507 20.1327 19.9921 19.828L19.664 18.0936C19.5117 17.2147 18.914 16.4764 18.0937 16.1366Z" fill="#1599DE"/>
<path d="M16.1835 12.5509C16.4296 11.8947 16.7109 11.0157 16.7812 10.09C16.8515 9.10559 16.5468 8.17981 15.9374 7.55871C15.3515 6.94934 14.496 6.63293 13.582 6.65637C12.621 6.62121 11.789 6.94934 11.1914 7.55871C10.5937 8.17981 10.2773 9.10559 10.3476 10.1017C10.4179 11.0275 10.6992 11.8947 10.9453 12.5509C11.2499 13.3595 11.707 13.9454 12.3046 14.2853C12.6914 14.4962 13.1249 14.6134 13.5468 14.6134C13.5585 14.6134 13.582 14.6134 13.5937 14.6134C14.0273 14.6134 14.4609 14.4962 14.8476 14.2853C15.4453 13.9454 15.8906 13.3595 16.1835 12.5509ZM14.2734 13.2892C14.0624 13.4064 13.8046 13.4767 13.5585 13.465C13.3124 13.4767 13.0664 13.4064 12.8554 13.2892C12.5039 13.09 12.2226 12.715 12.0234 12.1642C11.8007 11.5782 11.5546 10.8048 11.496 10.0314C11.4492 9.3634 11.6367 8.76574 12.0234 8.36731C12.3867 7.99231 12.9257 7.79309 13.582 7.81653C14.1914 7.79309 14.7421 7.99231 15.1054 8.36731C15.4804 8.75403 15.6679 9.3634 15.6328 10.0314C15.5742 10.8048 15.3164 11.5782 15.1054 12.1759C14.9062 12.7032 14.6249 13.09 14.2734 13.2892Z" fill="#1599DE"/>
<path d="M27.303 26.3695C27.3195 26.3935 27.3381 26.4159 27.3583 26.4365C27.5597 26.6803 27.5588 27.0271 27.3604 27.27C27.3555 27.2756 27.3511 27.2808 27.3473 27.2854C27.3415 27.2925 27.3364 27.299 27.332 27.3048L27.2823 27.3484C27.282 27.3486 27.2817 27.3489 27.2814 27.3491C27.0453 27.5526 26.697 27.5663 26.423 27.3448L26.4043 27.3261L26.0507 27.6797L26.4043 27.3261L26.4035 27.3254C26.3865 27.3084 26.3498 27.2716 26.2917 27.234L20.9767 22.8864L20.9768 22.8863L20.9671 22.8788C20.7809 22.734 20.5456 22.6445 20.2968 22.6445C20.0719 22.6445 19.8829 22.714 19.7259 22.8012C19.706 22.8122 19.6869 22.8246 19.6687 22.8383L19.6349 22.8636C15.3178 25.677 9.54731 25.1096 5.84877 21.5349C5.83146 21.5046 5.79716 21.4496 5.74459 21.3969C1.43941 17.0805 1.43924 10.0608 5.74409 5.74422C10.0609 1.43911 17.0799 1.43991 21.3842 5.75544L21.3847 5.7559C21.4256 5.79683 21.4758 5.83672 21.5331 5.87068C25.1134 9.57265 25.6644 15.3445 22.8432 19.66C22.8397 19.6654 22.8362 19.6708 22.8329 19.6763L22.803 19.7263C22.5394 20.1325 22.5997 20.6293 22.8645 20.9756C22.8681 20.9803 22.8717 20.9849 22.8755 20.9895L27.27 26.3332C27.2803 26.3457 27.2912 26.3577 27.3027 26.3692L27.303 26.3695Z" stroke="#878787" stroke-linejoin="round"/>
<path d="M28.6054 25.3477C28.5937 25.3477 28.5937 25.3477 28.6054 25.3477C28.5937 25.3359 28.5703 25.3008 28.5586 25.2891C28.5586 25.2891 28.5586 25.2891 28.5586 25.2773L24.4453 20.25C27.5039 15.2695 26.7539 8.73047 22.6054 4.57032C17.625 -0.398432 9.53902 -0.410151 4.53511 4.5586C-0.410201 9.53907 -0.386764 17.625 4.58199 22.582C8.74214 26.7305 15.2812 27.4805 20.2617 24.4219L25.2656 28.5117C25.289 28.5352 25.3359 28.5703 25.3476 28.5938C25.7812 28.9688 26.3203 29.1562 26.8476 29.1562C27.3867 29.1562 27.9257 28.9688 28.3593 28.5938L28.582 28.3711C28.6171 28.3359 28.6406 28.3008 28.664 28.2539C29.3437 27.3984 29.3203 26.1914 28.6054 25.3477ZM27.7382 27.5977C27.7265 27.6094 27.7148 27.6328 27.7031 27.6445L27.6093 27.7266C27.1757 28.1016 26.5429 28.1016 26.0859 27.7148L26.0507 27.6797C26.039 27.668 26.0273 27.6562 26.0039 27.6445L20.6601 23.2734C20.5546 23.1914 20.4257 23.1445 20.2968 23.1445C20.1796 23.1445 20.0742 23.1797 19.9687 23.2383L19.9218 23.2734C15.3867 26.2383 9.31636 25.6289 5.44917 21.8438C5.42574 21.8086 5.41402 21.7734 5.39058 21.75C0.89058 17.2383 0.89058 9.90235 5.39058 5.39063C9.9023 0.89063 17.2382 0.89063 21.7382 5.40235C21.7617 5.42579 21.7968 5.44922 21.832 5.46094C25.6289 9.32813 26.2265 15.3984 23.2617 19.9336L23.2265 19.9922C23.0859 20.2031 23.1093 20.4727 23.2617 20.6719L27.6562 26.0156C27.6796 26.0391 27.7031 26.0625 27.7148 26.0859L28.1601 25.7227L27.7265 26.0977C28.1015 26.5312 28.1015 27.1641 27.7382 27.5977Z" fill="#878787"/>
</svg>
