<svg width="20" height="15" viewBox="0 0 20 15" fill="none" xmlns="http://www.w3.org/2000/svg">
<path d="M0.75 2.125H19.5V0.25H0.75V2.125ZM11.0625 13.375H17.625V11.5H11.0625V13.375ZM11.0625 9.625H19.5V7.75H11.0625V9.625ZM11.0625 5.875H19.5V4H11.0625V5.875ZM0.75 13.375H9.1875V4H0.75V13.375ZM23.25 -1.625V-5.375H-3V15.25C-3 15.25 -3 19 0.75 19H24.1875C24.1875 19 27 18.9419 27 15.25V-1.625H23.25ZM0.75 17.125C-1.125 17.125 -1.125 15.25 -1.125 15.25V-3.5H21.375V15.25C21.375 16.1134 21.6413 16.7106 22.0088 17.125H0.75Z" fill="#1599DE"/>
</svg>
